<?xml version="1.0" encoding="UTF-8" standalone="no"?>
<!-- Created with Inkscape (http://www.inkscape.org/) -->

<svg
   xmlns:dc="http://purl.org/dc/elements/1.1/"
   xmlns:cc="http://creativecommons.org/ns#"
   xmlns:rdf="http://www.w3.org/1999/02/22-rdf-syntax-ns#"
   xmlns:svg="http://www.w3.org/2000/svg"
   xmlns="http://www.w3.org/2000/svg"
   xmlns:sodipodi="http://sodipodi.sourceforge.net/DTD/sodipodi-0.dtd"
   xmlns:inkscape="http://www.inkscape.org/namespaces/inkscape"
   width="100"
   height="145"
   id="svg2"
   version="1.1"
   inkscape:version="0.48.2 r9819"
   sodipodi:docname="drawing.svg">
  <defs
     id="defs4" />
  <sodipodi:namedview
     id="base"
     pagecolor="#ffffff"
     bordercolor="#666666"
     borderopacity="1.0"
     inkscape:pageopacity="0.0"
     inkscape:pageshadow="2"
     inkscape:zoom="2.2672065"
     inkscape:cx="151.45477"
     inkscape:cy="-33.068614"
     inkscape:document-units="px"
     inkscape:current-layer="layer1"
     showgrid="false"
     inkscape:window-width="2009"
     inkscape:window-height="1328"
     inkscape:window-x="20"
     inkscape:window-y="20"
     inkscape:window-maximized="0" />
  <metadata
     id="metadata7">
    <rdf:RDF>
      <cc:Work
         rdf:about="">
        <dc:format>image/svg+xml</dc:format>
        <dc:type
           rdf:resource="http://purl.org/dc/dcmitype/StillImage" />
        <dc:title />
      </cc:Work>
    </rdf:RDF>
  </metadata>
  <g
     inkscape:label="Layer 1"
     inkscape:groupmode="layer"
     id="layer1"
     transform="translate(0,-907.36218)">
    <g
       id="g5712"
       transform="matrix(2.7478422,0,0,2.7478422,70.700738,-1605.1298)">
      <path
         sodipodi:nodetypes="cssc"
         inkscape:connector-curvature="0"
         id="path4293"
         d="m 49.476741,964.04572 c 0.237543,-5.87204 -0.32056,-14.98995 -2.299649,-17.72023 -2.69897,-3.72333 -8.569598,-0.7695 -7.84928,2.6099 4.700394,22.05212 -4.093202,32.40808 -8.797165,38.27895"
         style="fill:none;stroke:#000000;stroke-width:0.36410043px;stroke-linecap:butt;stroke-linejoin:miter;stroke-opacity:1" />
      <path
         sodipodi:nodetypes="cscc"
         inkscape:connector-curvature="0"
         id="path4295"
         d="m 58.65183,993.19414 c -7.837673,11.45516 -16.370374,17.68366 -24.080783,22.34886 -6.595169,3.9904 -15.807649,6.6583 -23.111088,0.9238 -6.4630703,-5.4631 -6.890534,-13.3028 -4.801925,-17.71471"
         style="fill:none;stroke:#000000;stroke-width:0.36410043px;stroke-linecap:butt;stroke-linejoin:miter;stroke-opacity:1" />
      <path
         sodipodi:nodetypes="cc"
         inkscape:connector-curvature="0"
         id="path4297"
         d="m 73.295117,921.63259 c 3.571516,3.77122 7.326405,10.62808 8.936795,15.88234"
         style="fill:none;stroke:#000000;stroke-width:0.36410043px;stroke-linecap:butt;stroke-linejoin:miter;stroke-opacity:1" />
      <path
         sodipodi:nodetypes="cc"
         inkscape:connector-curvature="0"
         id="path4299"
         d="m 46.485695,1036.4369 c 2.147046,-0.9732 4.362734,-2.436 6.13523,-3.7043"
         style="fill:none;stroke:#000000;stroke-width:0.36410043px;stroke-linecap:butt;stroke-linejoin:miter;stroke-opacity:1" />
      <path
         sodipodi:nodetypes="cc"
         inkscape:connector-curvature="0"
         id="path4301"
         d="m 67.223598,952.19931 c 1.017652,7.98689 0.826291,20.98931 -2.288488,28.39477"
         style="fill:none;stroke:#000000;stroke-width:0.36410043px;stroke-linecap:butt;stroke-linejoin:miter;stroke-opacity:1" />
      <path
         sodipodi:nodetypes="cc"
         inkscape:connector-curvature="0"
         id="path4303"
         d="M 64.13312,931.58252 C 55.409723,919.21253 28.348495,916.40738 18.78425,939.63361"
         style="fill:none;stroke:#000000;stroke-width:0.36410043px;stroke-linecap:butt;stroke-linejoin:miter;stroke-opacity:1" />
      <path
         sodipodi:nodetypes="csc"
         inkscape:connector-curvature="0"
         id="path4305"
         d="M 1.1683995,975.18409 C 6.0506512,972.46026 9.8541341,965.79501 7.8221514,953.78492 4.6988761,935.32472 19.819218,914.43473 41.525078,913.26388"
         style="fill:none;stroke:#000000;stroke-width:0.36410043px;stroke-linecap:butt;stroke-linejoin:miter;stroke-opacity:1" />
      <path
         sodipodi:nodetypes="cc"
         inkscape:connector-curvature="0"
         id="path4307"
         d="m 53.431238,1012.5905 c 19.61947,-18.15329 24.529273,-35.56593 23.739871,-52.18106"
         style="fill:none;stroke:#000000;stroke-width:0.36410043px;stroke-linecap:butt;stroke-linejoin:miter;stroke-opacity:1" />
      <path
         sodipodi:nodetypes="cc"
         inkscape:connector-curvature="0"
         id="path4309"
         d="m 10.472329,1036.2512 c 4.428495,1.6106 12.512534,2.5513 18.504077,1.2508"
         style="fill:none;stroke:#000000;stroke-width:0.36410043px;stroke-linecap:butt;stroke-linejoin:miter;stroke-opacity:1" />
      <path
         sodipodi:nodetypes="cc"
         inkscape:connector-curvature="0"
         id="path4311"
         d="m 49.862822,1040.2265 c -9.571446,5.2893 -21.839881,6.6942 -27.518316,6.347"
         style="fill:none;stroke:#000000;stroke-width:0.36410043px;stroke-linecap:butt;stroke-linejoin:miter;stroke-opacity:1" />
      <path
         sodipodi:nodetypes="cc"
         inkscape:connector-curvature="0"
         id="path4313"
         d="m 69.450005,1038.4325 c -1.317478,1.533 -5.523274,4.7533 -8.378666,6.6863"
         style="fill:none;stroke:#000000;stroke-width:0.36410043px;stroke-linecap:butt;stroke-linejoin:miter;stroke-opacity:1" />
      <path
         sodipodi:nodetypes="cc"
         inkscape:connector-curvature="0"
         id="path4315"
         d="m 73.3418,1027.5235 c 2.780271,-2.9871 4.688418,-5.3588 6.366752,-7.8717"
         style="fill:none;stroke:#000000;stroke-width:0.36410043px;stroke-linecap:butt;stroke-linejoin:miter;stroke-opacity:1" />
      <path
         sodipodi:nodetypes="cc"
         inkscape:connector-curvature="0"
         id="path4317"
         d="M 71.142383,919.41078 C 60.37156,909.44594 48.763762,907.79562 36.761927,909.21767"
         style="fill:none;stroke:#000000;stroke-width:0.36410043px;stroke-linecap:butt;stroke-linejoin:miter;stroke-opacity:1" />
      <path
         sodipodi:nodetypes="cc"
         inkscape:connector-curvature="0"
         id="path4319"
         d="m 36.067372,918.70991 c 26.001521,-5.92913 39.620908,13.66303 40.889211,38.83605"
         style="fill:none;stroke:#000000;stroke-width:0.36410043px;stroke-linecap:butt;stroke-linejoin:miter;stroke-opacity:1" />
      <path
         sodipodi:nodetypes="csc"
         inkscape:connector-curvature="0"
         id="path4321"
         d="m 34.000738,919.41614 c -16.596614,5.81223 -23.053236,22.34293 -20.969427,34.25302 2.802499,16.01782 -5.9456182,23.2406 -12.03894438,26.85611"
         style="fill:none;stroke:#000000;stroke-width:0.36410043px;stroke-linecap:butt;stroke-linejoin:miter;stroke-opacity:1" />
      <path
         sodipodi:nodetypes="csc"
         inkscape:connector-curvature="0"
         id="path4323"
         d="m 31.002672,951.90408 c -1.981503,-17.49013 14.623185,-19.4812 21.849774,-12.84927 8.35968,7.6718 9.603592,38.84296 -7.292826,56.40339"
         style="fill:none;stroke:#000000;stroke-width:0.36410043px;stroke-linecap:butt;stroke-linejoin:miter;stroke-opacity:1" />
      <path
         sodipodi:nodetypes="cssc"
         inkscape:connector-curvature="0"
         id="path4325"
         d="m 26.65956,954.55661 c 1.809026,15.58392 -1.146253,22.14685 -10.56015,29.35974 -2.580207,1.97694 -9.5813541,6.0594 -12.8215255,11.87842 -1.9425761,3.48867 -2.55968701,7.15173 -1.6780257,12.80793"
         style="fill:none;stroke:#000000;stroke-width:0.36410043px;stroke-linecap:butt;stroke-linejoin:miter;stroke-opacity:1" />
      <path
         sodipodi:nodetypes="csc"
         inkscape:connector-curvature="0"
         id="path4327"
         d="m 41.971086,977.39978 c -6.464071,13.2468 -16.854914,19.87874 -21.415433,22.57303 -4.573549,2.70199 -1.477841,10.02069 6.428855,5.42669"
         style="fill:none;stroke:#000000;stroke-width:0.36410043px;stroke-linecap:butt;stroke-linejoin:miter;stroke-opacity:1" />
      <path
         sodipodi:nodetypes="cc"
         inkscape:connector-curvature="0"
         id="path4329"
         d="m 33.057638,1026.3659 c -12.99135,4.9885 -25.4769753,3.2411 -31.8454261,-8.1489"
         style="fill:none;stroke:#000000;stroke-width:0.36410043px;stroke-linecap:butt;stroke-linejoin:miter;stroke-opacity:1" />
      <path
         sodipodi:nodetypes="cc"
         inkscape:connector-curvature="0"
         id="path4331"
         d="m 76.004262,990.13328 c 6.743673,-12.71717 7.217594,-29.53825 3.026766,-47.3338"
         style="fill:none;stroke:#000000;stroke-width:0.36410043px;stroke-linecap:butt;stroke-linejoin:miter;stroke-opacity:1" />
      <path
         sodipodi:nodetypes="cc"
         inkscape:connector-curvature="0"
         id="path4333"
         d="m 77.624889,999.04673 c -8.491698,16.47187 -27.389821,32.11067 -45.377567,37.85317"
         style="fill:none;stroke:#000000;stroke-width:0.36410043px;stroke-linecap:butt;stroke-linejoin:miter;stroke-opacity:1" />
      <path
         sodipodi:nodetypes="cc"
         inkscape:connector-curvature="0"
         id="path4335"
         d="m 62.605611,1031.0824 c 4.025605,-3.0576 10.726172,-10.4007 15.135039,-16.7555"
         style="fill:none;stroke:#000000;stroke-width:0.36410043px;stroke-linecap:butt;stroke-linejoin:miter;stroke-opacity:1" />
      <path
         sodipodi:nodetypes="cssac"
         inkscape:connector-curvature="0"
         id="path4337"
         d="m 33.804426,974.90983 c -3.338098,8.30756 -11.134316,14.84229 -18.457932,19.39078 -10.173838,6.31869 -5.209381,23.79679 7.524343,20.72089 13.190549,-3.1863 22.97475,-11.9475 30.444646,-21.99424 5.985452,-8.0502 9.047665,-16.99304 9.851646,-28.43637"
         style="fill:none;stroke:#000000;stroke-width:0.36410043px;stroke-linecap:butt;stroke-linejoin:miter;stroke-opacity:1" />
      <path
         sodipodi:nodetypes="cc"
         inkscape:connector-curvature="0"
         id="path4339"
         d="m 63.299461,961.07775 c -0.0079,-7.75586 -0.262975,-15.92808 -5.608478,-23.21554"
         style="fill:none;stroke:#000000;stroke-width:0.36410043px;stroke-linecap:butt;stroke-linejoin:miter;stroke-opacity:1" />
      <path
         sodipodi:nodetypes="cssc"
         inkscape:connector-curvature="0"
         id="path4341"
         d="m 35.633035,928.19049 c -10.666394,3.72979 -15.507599,13.64038 -13.837321,28.25689 1.018901,8.91634 0.760528,17.7276 -8.99592,25.35124 -4.4968442,3.51381 -9.0474124,6.15255 -12.25344008,11.3444"
         style="fill:none;stroke:#000000;stroke-width:0.36410043px;stroke-linecap:butt;stroke-linejoin:miter;stroke-opacity:1" />
      <path
         sodipodi:nodetypes="cc"
         inkscape:connector-curvature="0"
         id="path4343"
         d="m 61.650135,1011.0856 c -7.870515,8.6721 -16.441431,15.4763 -26.161558,19.216"
         style="fill:none;stroke:#000000;stroke-width:0.36410043px;stroke-linecap:butt;stroke-linejoin:miter;stroke-opacity:1" />
      <path
         sodipodi:nodetypes="cc"
         inkscape:connector-curvature="0"
         id="path4345"
         d="m 63.84956,1009.002 c 3.653638,-4.4607 7.256223,-9.21765 10.534076,-15.85898"
         style="fill:none;stroke:#000000;stroke-width:0.36410043px;stroke-linecap:butt;stroke-linejoin:miter;stroke-opacity:1" />
      <path
         sodipodi:nodetypes="cc"
         inkscape:connector-curvature="0"
         id="path4347"
         d="m 77.972172,1006.9183 c -6.501977,10.611 -14.921053,18.2389 -23.267584,24.3094"
         style="fill:none;stroke:#000000;stroke-width:0.36410043px;stroke-linecap:butt;stroke-linejoin:miter;stroke-opacity:1" />
      <path
         sodipodi:nodetypes="cc"
         inkscape:connector-curvature="0"
         id="path4349"
         d="m 44.945809,913.27743 c 17.823072,0.99908 29.334311,12.3582 33.494753,26.84256"
         style="fill:none;stroke:#000000;stroke-width:0.36410043px;stroke-linecap:butt;stroke-linejoin:miter;stroke-opacity:1" />
      <path
         sodipodi:nodetypes="cc"
         inkscape:connector-curvature="0"
         id="path4351"
         d="m 86.311772,1018.8466 c -4.861879,7.8462 -9.684997,13.2307 -14.822113,17.8218"
         style="fill:none;stroke:#000000;stroke-width:0.36410043px;stroke-linecap:butt;stroke-linejoin:miter;stroke-opacity:1" />
      <path
         sodipodi:nodetypes="cccc"
         inkscape:connector-curvature="0"
         id="path4353"
         d="m 17.661677,942.78781 c -1.337006,5.27468 -0.636245,9.49224 -0.115761,14.23837 1.347196,10.79773 -1.811389,15.92822 -5.324918,19.21601 -3.6429705,3.35315 -7.4178981,6.43727 -11.22863138,9.72376"
         style="fill:none;stroke:#000000;stroke-width:0.36410043px;stroke-linecap:butt;stroke-linejoin:miter;stroke-opacity:1" />
      <path
         sodipodi:nodetypes="cssc"
         inkscape:connector-curvature="0"
         id="path4355"
         d="m 43.128678,998.0049 c -5.645818,5.3269 -10.605379,9.3028 -17.016586,11.9232 -11.986383,4.8989 -14.451288,-7.4695 -9.02921,-11.9232 3.655959,-3.00303 8.320681,-5.74565 11.228631,-8.68193"
         style="fill:none;stroke:#000000;stroke-width:0.36410043px;stroke-linecap:butt;stroke-linejoin:miter;stroke-opacity:1" />
      <path
         sodipodi:nodetypes="cc"
         inkscape:connector-curvature="0"
         id="path4357"
         d="m 33.404913,1031.112 c -15.605448,5.1885 -24.9378102,1.1549 -31.717992,-5.0063"
         style="fill:none;stroke:#000000;stroke-width:0.36410043px;stroke-linecap:butt;stroke-linejoin:miter;stroke-opacity:1" />
      <path
         sodipodi:nodetypes="cc"
         inkscape:connector-curvature="0"
         id="path4359"
         d="m 31.772475,1050.5591 c 4.766362,-0.1148 9.550285,-1.2134 13.711758,-2.7545"
         style="fill:none;stroke:#000000;stroke-width:0.36410043px;stroke-linecap:butt;stroke-linejoin:miter;stroke-opacity:1" />
      <path
         sodipodi:nodetypes="cc"
         inkscape:connector-curvature="0"
         id="path4361"
         d="m 87.996523,986.10506 c -1.90156,6.28341 -4.421048,12.74978 -8.751001,18.72964"
         style="fill:none;stroke:#000000;stroke-width:0.36410043px;stroke-linecap:butt;stroke-linejoin:miter;stroke-opacity:1" />
      <path
         sodipodi:nodetypes="cc"
         inkscape:connector-curvature="0"
         id="path4363"
         d="m 89.023293,982.84971 c 0.814693,-4.33402 1.375933,-8.26673 1.547069,-12.27972"
         style="fill:none;stroke:#000000;stroke-width:0.36410043px;stroke-linecap:butt;stroke-linejoin:miter;stroke-opacity:1" />
      <path
         sodipodi:nodetypes="cscc"
         inkscape:connector-curvature="0"
         id="path4365"
         d="m 31.442247,954.19417 c 0.900072,6.84656 1.935272,19.57923 -7.992614,28.87781 -4.75974,4.45803 -10.523467,7.59814 -15.0486855,12.50198 l 0,0"
         style="fill:none;stroke:#000000;stroke-width:0.36410043px;stroke-linecap:butt;stroke-linejoin:miter;stroke-opacity:1" />
      <path
         sodipodi:nodetypes="cc"
         inkscape:connector-curvature="0"
         id="path4367"
         d="m 47.990562,1046.7394 c 4.939055,-2.5203 9.878109,-5.2847 14.817165,-9.0292"
         style="fill:none;stroke:#000000;stroke-width:0.36410043px;stroke-linecap:butt;stroke-linejoin:miter;stroke-opacity:1" />
      <path
         sodipodi:nodetypes="cc"
         inkscape:connector-curvature="0"
         id="path4369"
         d="m 81.193168,1017.6201 c 2.296405,-2.8647 3.948523,-5.2522 5.855017,-8.3686"
         style="fill:none;stroke:#000000;stroke-width:0.36410043px;stroke-linecap:butt;stroke-linejoin:miter;stroke-opacity:1" />
      <path
         sodipodi:nodetypes="cc"
         inkscape:connector-curvature="0"
         id="path4371"
         d="m 34.151511,909.87721 c -7.64808,2.24232 -14.891521,6.38715 -19.100253,11.08952"
         style="fill:none;stroke:#000000;stroke-width:0.36410043px;stroke-linecap:butt;stroke-linejoin:miter;stroke-opacity:1" />
      <path
         sodipodi:nodetypes="cc"
         inkscape:connector-curvature="0"
         id="path4373"
         d="m 39.771664,1017.3367 c -11.050633,7.0847 -21.130221,7.8326 -27.319146,5.1283"
         style="fill:none;stroke:#000000;stroke-width:0.36410043px;stroke-linecap:butt;stroke-linejoin:miter;stroke-opacity:1" />
      <path
         sodipodi:nodetypes="cc"
         inkscape:connector-curvature="0"
         id="path4375"
         d="m 9.9058178,1021.2724 c -3.2412545,-2.1608 -5.9692165,-5.298 -7.7154913,-9.8278"
         style="fill:none;stroke:#000000;stroke-width:0.36410043px;stroke-linecap:butt;stroke-linejoin:miter;stroke-opacity:1" />
      <path
         sodipodi:nodetypes="cc"
         inkscape:connector-curvature="0"
         id="path4377"
         d="M 42.549882,1015.4845 C 66.714156,998.52408 75.132516,977.49446 71.836935,953.43765"
         style="fill:none;stroke:#000000;stroke-width:0.36410043px;stroke-linecap:butt;stroke-linejoin:miter;stroke-opacity:1" />
      <path
         sodipodi:nodetypes="cc"
         inkscape:connector-curvature="0"
         id="path4379"
         d="m 60.608302,989.78601 c 1.449696,-2.38784 2.457813,-4.32168 3.357017,-6.48252"
         style="fill:none;stroke:#000000;stroke-width:0.36410043px;stroke-linecap:butt;stroke-linejoin:miter;stroke-opacity:1" />
      <path
         sodipodi:nodetypes="cc"
         inkscape:connector-curvature="0"
         id="path4381"
         d="m 29.584863,1003.6771 c 8.586093,-5.1646 16.843251,-12.3323 22.370208,-27.89795"
         style="fill:none;stroke:#000000;stroke-width:0.36410043px;stroke-linecap:butt;stroke-linejoin:miter;stroke-opacity:1" />
      <path
         sodipodi:nodetypes="cc"
         inkscape:connector-curvature="0"
         id="path4383"
         d="m 52.736684,973.00093 c 2.647098,-13.24374 3.28512,-35.59473 -11.228631,-32.75982"
         style="fill:none;stroke:#000000;stroke-width:0.36410043px;stroke-linecap:butt;stroke-linejoin:miter;stroke-opacity:1" />
      <path
         sodipodi:nodetypes="cc"
         inkscape:connector-curvature="0"
         id="path4385"
         d="m 52.216899,1038.7566 c 2.970887,-1.7101 5.593302,-3.4646 8.389146,-5.9695"
         style="fill:none;stroke:#000000;stroke-width:0.36410043px;stroke-linecap:butt;stroke-linejoin:miter;stroke-opacity:1" />
      <path
         sodipodi:nodetypes="cc"
         inkscape:connector-curvature="0"
         id="path4387"
         d="m 55.503229,935.6978 c -10.362611,-9.97765 -30.83874,-3.4726 -29.194636,15.68585"
         style="fill:none;stroke:#000000;stroke-width:0.36410043px;stroke-linecap:butt;stroke-linejoin:miter;stroke-opacity:1" />
      <path
         sodipodi:nodetypes="cc"
         inkscape:connector-curvature="0"
         id="path4389"
         d="m 71.60542,950.31215 c -0.761328,-6.22714 -2.669115,-11.46833 -5.811302,-16.47816"
         style="fill:none;stroke:#000000;stroke-width:0.36410043px;stroke-linecap:butt;stroke-linejoin:miter;stroke-opacity:1" />
      <path
         sodipodi:nodetypes="cc"
         inkscape:connector-curvature="0"
         id="path4391"
         d="m 79.477037,996.03699 c 6.262566,-13.10681 10.634874,-33.13353 3.472775,-55.91164"
         style="fill:none;stroke:#000000;stroke-width:0.36410043px;stroke-linecap:butt;stroke-linejoin:miter;stroke-opacity:1" />
      <path
         sodipodi:nodetypes="cc"
         inkscape:connector-curvature="0"
         id="path4393"
         d="m 13.40729,922.993 c -3.341001,3.45779 -6.7086096,8.91872 -8.103139,14.35413"
         style="fill:none;stroke:#000000;stroke-width:0.36410043px;stroke-linecap:butt;stroke-linejoin:miter;stroke-opacity:1" />
      <path
         sodipodi:nodetypes="csc"
         inkscape:connector-curvature="0"
         id="path4395"
         d="m 4.4301232,940.81991 c -1.3652601,5.47926 -1.59355,10.8633 -0.7466014,16.28166 0.7234421,4.62823 1.0320424,8.68701 -2.81227038,11.93485"
         style="fill:none;stroke:#000000;stroke-width:0.36410043px;stroke-linecap:butt;stroke-linejoin:miter;stroke-opacity:1" />
      <path
         sodipodi:nodetypes="cc"
         inkscape:connector-curvature="0"
         id="path4397"
         d="M 66.575735,948.94104 C 62.801,926.01477 46.76278,925.74525 38.382556,927.16033"
         style="fill:none;stroke:#000000;stroke-width:0.36410043px;stroke-linecap:butt;stroke-linejoin:miter;stroke-opacity:1" />
      <path
         sodipodi:nodetypes="cc"
         inkscape:connector-curvature="0"
         id="path4399"
         d="m 36.53041,1024.6295 c 5.310541,-2.8214 9.781383,-5.8129 13.659573,-9.145"
         style="fill:none;stroke:#000000;stroke-width:0.36410043px;stroke-linecap:butt;stroke-linejoin:miter;stroke-opacity:1" />
      <path
         sodipodi:nodetypes="cc"
         inkscape:connector-curvature="0"
         id="path4401"
         d="m 15.247727,1041.4485 c 8.73806,1.5957 19.400998,0.7187 28.3327,-3.441"
         style="fill:none;stroke:#000000;stroke-width:0.36410043px;stroke-linecap:butt;stroke-linejoin:miter;stroke-opacity:1" />
      <path
         sodipodi:nodetypes="cc"
         inkscape:connector-curvature="0"
         id="path4403"
         d="m 64.428352,1036.4369 c 2.282393,-1.823 4.285702,-3.5344 6.829792,-6.251"
         style="fill:none;stroke:#000000;stroke-width:0.36410043px;stroke-linecap:butt;stroke-linejoin:miter;stroke-opacity:1" />
      <path
         sodipodi:nodetypes="cc"
         inkscape:connector-curvature="0"
         id="path4405"
         d="m 79.592798,1011.896 c 4.027227,-5.9549 7.974803,-11.6299 10.460657,-17.89305"
         style="fill:none;stroke:#000000;stroke-width:0.36410043px;stroke-linecap:butt;stroke-linejoin:miter;stroke-opacity:1" />
      <path
         sodipodi:nodetypes="cc"
         inkscape:connector-curvature="0"
         id="path4407"
         d="m 49.855984,1050.6528 c -1.79124,0.7843 -3.515008,1.3899 -5.969061,1.842"
         style="fill:none;stroke:#000000;stroke-width:0.36410043px;stroke-linecap:butt;stroke-linejoin:miter;stroke-opacity:1" />
      <path
         sodipodi:nodetypes="cc"
         inkscape:connector-curvature="0"
         id="path4409"
         d="m 52.556394,1049.6273 c 1.912739,-0.9389 3.647996,-1.7323 5.569693,-2.991"
         style="fill:none;stroke:#000000;stroke-width:0.36410043px;stroke-linecap:butt;stroke-linejoin:miter;stroke-opacity:1" />
      <path
         sodipodi:nodetypes="cc"
         inkscape:connector-curvature="0"
         id="path4411"
         d="m 43.012919,975.20036 c 2.818142,-8.96127 3.238943,-17.58603 0.810317,-25.93005"
         style="fill:none;stroke:#000000;stroke-width:0.36410043px;stroke-linecap:butt;stroke-linejoin:miter;stroke-opacity:1" />
      <path
         sodipodi:nodetypes="csc"
         inkscape:connector-curvature="0"
         id="path4413"
         d="m 39.308627,940.93566 c -5.147486,2.59372 -5.072169,5.92829 -3.525009,14.81039 0.957223,5.49533 -0.02579,12.86989 -1.105354,16.44457"
         style="fill:none;stroke:#000000;stroke-width:0.36410043px;stroke-linecap:butt;stroke-linejoin:miter;stroke-opacity:1" />
      <path
         sodipodi:nodetypes="cc"
         inkscape:connector-curvature="0"
         id="path4415"
         d="m 22.801765,1003.127 c 12.755904,-7.55668 24.007224,-17.96807 26.415456,-35.67083"
         style="fill:none;stroke:#000000;stroke-width:0.36410043px;stroke-linecap:butt;stroke-linejoin:miter;stroke-opacity:1" />
    </g>
  </g>
</svg>
