<?xml version="1.0" encoding="UTF-8"?>
<svg viewBox="0 0 33 44" version="1.1" xmlns="http://www.w3.org/2000/svg" xmlns:xlink="http://www.w3.org/1999/xlink">
    <defs>
        <style>
            g:not(:target) {
                display: none;
            }

            #light {
                --fill: rgb(96, 85, 38);
            }

            #dark {
                --fill: rgb(217, 196, 159);
            }
        </style>
    </defs>

    <symbol id="hand" viewBox="0 0 33 44">
        <path fill="var(--fill)" d="M0.805175781,29.0844727 L0.805175781,10.5029297 C0.805175781,9.453125 1.45605469,8.48730469 2.82080078,8.48730469 C4.14355469,8.48730469 4.7734375,9.453125 4.7734375,10.5029297 L4.7734375,23.0585938 C5.4453125,22.6386719 6.18017578,22.2607422 6.95703125,21.9458008 L6.95703125,4.35107422 C6.95703125,3.30126953 7.62890625,2.33544922 8.93066406,2.33544922 C10.253418,2.33544922 10.9462891,3.30126953 10.9462891,4.35107422 L10.9462891,20.8330078 C11.6391602,20.7070312 12.3740234,20.6230469 13.1088867,20.5810547 L13.1088867,2.81835938 C13.1088867,1.74755859 13.7597656,0.823730469 15.0825195,0.823730469 C16.4262695,0.823730469 17.0771484,1.74755859 17.0771484,2.81835938 L17.0771484,20.7280273 C17.8959961,20.8330078 18.6098633,20.9799805 19.2607422,21.1689453 L19.2607422,5.44287109 C19.2607422,4.37207031 19.9116211,3.40625 21.2553711,3.40625 C22.5991211,3.40625 23.2290039,4.37207031 23.2290039,5.44287109 L23.2290039,24.6333008 C23.2290039,26.7329102 23.4599609,27.8457031 24.0898438,27.8457031 C25.1606445,27.8457031 26.4833984,23.4575195 27.6171875,21.0849609 C28.6459961,18.9433594 29.296875,18.1245117 31.0185547,18.1245117 C31.7744141,18.1245117 32.887207,18.859375 32.887207,19.7202148 C32.887207,21.0219727 31.753418,23.5205078 31.1445312,25.5151367 C30.3886719,27.9926758 29.0869141,34.4804688 25.0976562,38.6796875 C22.2211914,41.703125 18.6518555,43.2988281 13.8227539,43.2988281 C6.24316406,43.2988281 0.805175781,38.8896484 0.805175781,29.0844727 Z"/>
    </symbol>

    <g id="dark"><use href="#hand"/></g>
    <g id="light"><use href="#hand"/></g>
</svg>
