<?xml version="1.0" encoding="UTF-8"?>
<svg viewBox="0 0 16 16" version="1.1" xmlns="http://www.w3.org/2000/svg" xmlns:xlink="http://www.w3.org/1999/xlink">
    <path fill="#CB0000" d="M10.1333008,14.7238867 C11.0195312,14.7238867 11.4663086,14.4382422 11.9277344,13.9255469 L14.4692383,11.1057227 C14.9306641,10.5857031 15.0478516,10.2487891 15.0478516,9.54566406 L15.0478516,6.42554688 C15.0478516,5.72242188 14.9306641,5.38550781 14.4692383,4.86548828 L11.9277344,2.03833984 C11.4663086,1.53296875 11.0195312,1.24 10.1333008,1.24 L5.91455078,1.24 C5.03564453,1.24 4.58886719,1.53296875 4.12744141,2.03833984 L1.5859375,4.86548828 C1.12451172,5.38550781 1,5.72242188 1,6.42554688 L1,9.54566406 C1,10.2487891 1.12451172,10.5857031 1.5859375,11.1057227 L4.12744141,13.9255469 C4.58886719,14.4382422 5.03564453,14.7238867 5.91455078,14.7238867 L10.1333008,14.7238867 Z M10.4775391,11.0544531 C10.3017578,11.0544531 10.1552734,10.9812109 10.0454102,10.8713477 L8.01660156,8.84986328 L6.00244141,10.8713477 C5.89257812,10.9885352 5.73876953,11.0544531 5.5703125,11.0544531 C5.22607422,11.0544531 4.95507812,10.7761328 4.95507812,10.4392188 C4.95507812,10.2707617 5.02099609,10.1242773 5.13818359,10.0144141 L7.15966797,7.98560547 L5.13818359,5.95679688 C5.02832031,5.85425781 4.95507812,5.70044922 4.95507812,5.53931641 C4.95507812,5.19507813 5.22607422,4.93140625 5.5703125,4.93140625 C5.73876953,4.93140625 5.87792969,4.99732422 5.98779297,5.11451172 L8.01660156,7.13599609 L10.0673828,5.1071875 C10.1845703,4.97535156 10.3237305,4.92408203 10.4848633,4.92408203 C10.8217773,4.92408203 11.1000977,5.19507813 11.1000977,5.53199219 C11.1000977,5.693125 11.0415039,5.83228516 10.9169922,5.94947266 L8.88818359,7.98560547 L10.909668,10.0070898 C11.0195312,10.1242773 11.0927734,10.2707617 11.0927734,10.4392188 C11.0927734,10.7761328 10.8144531,11.0544531 10.4775391,11.0544531 Z"/>
</svg>
